<svg width="98" height="36" viewBox="0 0 98 36" fill="none" xmlns="http://www.w3.org/2000/svg">
<path d="M46 29.4313C46 27.9262 47.1767 26.7554 48.5216 26.9221L89.0132 31.9432C94.1565 32.5811 98.5082 27.7567 97.9519 22.0342C97.3724 16.0894 91.8371 12.4152 86.8573 14.6716L49.1267 31.7692C47.6337 32.4458 46 31.2243 46 29.4313Z" fill="url(#paint0_linear_320_405)"/>
<path d="M23.9688 16.2344V16.5312C23.9479 17.4062 23.8542 18.3125 23.6875 19.25C23.5312 20.1875 23.3073 21.125 23.0156 22.0625C22.724 23 22.375 23.9271 21.9688 24.8438C21.5625 25.7604 21.1042 26.6354 20.5938 27.4688C20.0938 28.3125 19.5521 29.099 18.9688 29.8281C18.3854 30.5677 17.7708 31.2188 17.125 31.7812L14.7969 30.4375C15.1615 29.8229 15.4896 29.151 15.7812 28.4219C16.0833 27.7031 16.3542 26.9479 16.5938 26.1562C16.8333 25.3646 17.0365 24.5521 17.2031 23.7188C17.3802 22.8854 17.526 22.0573 17.6406 21.2344C17.7552 20.4115 17.8385 19.6042 17.8906 18.8125C17.9531 18.0104 17.9844 17.25 17.9844 16.5312C17.9844 15.9688 17.9792 15.3333 17.9688 14.625C17.9688 13.9062 17.9271 13.1771 17.8438 12.4375C17.7708 11.6979 17.6458 10.9792 17.4688 10.2812C17.2917 9.57292 17.026 8.94271 16.6719 8.39062C16.3281 7.83854 15.8802 7.39583 15.3281 7.0625C14.7865 6.72917 14.1094 6.5625 13.2969 6.5625C12.5781 6.5625 11.9583 6.6875 11.4375 6.9375C10.9271 7.17708 10.4896 7.50521 10.125 7.92188C9.77083 8.32812 9.48438 8.80208 9.26562 9.34375C9.05729 9.88542 8.89062 10.4583 8.76562 11.0625C8.65104 11.6562 8.57292 12.2604 8.53125 12.875C8.5 13.4792 8.48438 14.0521 8.48438 14.5938V18.9531H15.2188V21.5312H8.48438V27H2.28125V15.5625C2.28125 13.9271 2.54167 12.4062 3.0625 11C3.58333 9.59375 4.31771 8.375 5.26562 7.34375C6.22396 6.30208 7.36979 5.48958 8.70312 4.90625C10.0469 4.3125 11.5417 4.01562 13.1875 4.01562C14.3021 4.01562 15.3438 4.17708 16.3125 4.5C17.2917 4.8125 18.1823 5.25 18.9844 5.8125C19.7865 6.36458 20.5 7.02604 21.125 7.79688C21.7604 8.55729 22.2865 9.39062 22.7031 10.2969C23.1302 11.2031 23.4531 12.1615 23.6719 13.1719C23.8906 14.1823 23.9896 15.2031 23.9688 16.2344ZM34.25 27H28.9531V11.0469H25.6719V8.95312H28.9531V2.3125H34.25V8.95312H39.7188V11.0469H34.25V27ZM47.7188 4.59375C47.7188 4.98958 47.6406 5.36458 47.4844 5.71875C47.3385 6.07292 47.1354 6.38021 46.875 6.64062C46.6146 6.90104 46.3073 7.10938 45.9531 7.26562C45.599 7.41146 45.224 7.48438 44.8281 7.48438C44.4323 7.48438 44.0573 7.41146 43.7031 7.26562C43.3594 7.10938 43.0573 6.90104 42.7969 6.64062C42.5365 6.38021 42.3281 6.07292 42.1719 5.71875C42.026 5.36458 41.9531 4.98958 41.9531 4.59375C41.9531 4.19792 42.026 3.82812 42.1719 3.48438C42.3281 3.13021 42.5365 2.82292 42.7969 2.5625C43.0573 2.30208 43.3594 2.09896 43.7031 1.95312C44.0573 1.79688 44.4323 1.71875 44.8281 1.71875C45.224 1.71875 45.599 1.79688 45.9531 1.95312C46.3073 2.09896 46.6146 2.30208 46.875 2.5625C47.1354 2.82292 47.3385 3.13021 47.4844 3.48438C47.6406 3.82812 47.7188 4.19792 47.7188 4.59375ZM47.4844 27H42.1875V8.96875H47.4844V27ZM67.4531 21.2344C67.4531 22.026 67.3385 22.7292 67.1094 23.3438C66.8802 23.9583 66.5677 24.4948 66.1719 24.9531C65.776 25.401 65.3073 25.7812 64.7656 26.0938C64.224 26.3958 63.6406 26.6406 63.0156 26.8281C62.401 27.0156 61.7552 27.151 61.0781 27.2344C60.401 27.3177 59.7292 27.3594 59.0625 27.3594C58.1667 27.3594 57.375 27.3021 56.6875 27.1875C56 27.0729 55.3438 26.8906 54.7188 26.6406C54.0938 26.3802 53.4688 26.0469 52.8438 25.6406C52.2292 25.2344 51.5417 24.7396 50.7812 24.1562L53.8594 21.6406C54.1406 22.1719 54.5104 22.6562 54.9688 23.0938C55.4375 23.5208 55.9219 23.8906 56.4219 24.2031C56.9219 24.5156 57.4062 24.7552 57.875 24.9219C58.3438 25.0885 58.724 25.1719 59.0156 25.1719C59.2552 25.1719 59.526 25.1667 59.8281 25.1562C60.1302 25.1354 60.4375 25.1042 60.75 25.0625C61.0625 25.0104 61.3698 24.9375 61.6719 24.8438C61.974 24.75 62.2396 24.625 62.4688 24.4688C62.7083 24.3021 62.8958 24.099 63.0312 23.8594C63.1771 23.6094 63.25 23.3125 63.25 22.9688C63.25 22.6146 63.1562 22.3073 62.9688 22.0469C62.7917 21.776 62.5573 21.5417 62.2656 21.3438C61.974 21.1458 61.6406 20.9792 61.2656 20.8438C60.8906 20.7083 60.5104 20.5885 60.125 20.4844C59.75 20.3802 59.3854 20.2917 59.0312 20.2188C58.6771 20.1354 58.3698 20.0573 58.1094 19.9844C57.6302 19.849 57.125 19.7135 56.5938 19.5781C56.0625 19.4323 55.5365 19.2708 55.0156 19.0938C54.4948 18.9062 53.9948 18.6875 53.5156 18.4375C53.0469 18.1875 52.6302 17.8906 52.2656 17.5469C51.9115 17.1927 51.625 16.7812 51.4062 16.3125C51.1979 15.8333 51.0938 15.276 51.0938 14.6406C51.0938 13.474 51.3229 12.5 51.7812 11.7188C52.25 10.9271 52.8646 10.2969 53.625 9.82812C54.3854 9.34896 55.25 9.01042 56.2188 8.8125C57.1875 8.61458 58.1719 8.51562 59.1719 8.51562C59.8594 8.51562 60.5833 8.58854 61.3438 8.73438C62.1042 8.86979 62.8438 9.07812 63.5625 9.35938C64.2812 9.63021 64.9531 9.96354 65.5781 10.3594C66.2031 10.7552 66.724 11.2083 67.1406 11.7188L64.0625 14.25C63.8333 13.625 63.5312 13.0885 63.1562 12.6406C62.7917 12.1927 62.3906 11.8281 61.9531 11.5469C61.526 11.2552 61.0833 11.0417 60.625 10.9062C60.1771 10.7708 59.7604 10.7031 59.375 10.7031C59 10.7031 58.5781 10.7188 58.1094 10.75C57.6406 10.7812 57.1979 10.8698 56.7812 11.0156C56.375 11.1615 56.026 11.3854 55.7344 11.6875C55.4531 11.9792 55.3125 12.3854 55.3125 12.9062C55.3125 13.2812 55.3958 13.6042 55.5625 13.875C55.7396 14.1354 55.9688 14.3646 56.25 14.5625C56.5312 14.75 56.849 14.9115 57.2031 15.0469C57.5677 15.1719 57.9375 15.2865 58.3125 15.3906C58.6875 15.4844 59.0521 15.5677 59.4062 15.6406C59.7604 15.7135 60.0781 15.7917 60.3594 15.875C60.8385 16.0104 61.3438 16.151 61.875 16.2969C62.4167 16.4323 62.9479 16.5938 63.4688 16.7812C63.9896 16.9583 64.4896 17.1719 64.9688 17.4219C65.4583 17.6615 65.8854 17.9583 66.25 18.3125C66.6146 18.6667 66.9062 19.0833 67.125 19.5625C67.3438 20.0312 67.4531 20.5885 67.4531 21.2344ZM89.25 16.6562C89.25 17.875 89.099 19.1458 88.7969 20.4688C88.5052 21.7917 88.0938 23.0885 87.5625 24.3594C87.0312 25.6302 86.3958 26.8229 85.6562 27.9375C84.9167 29.0625 84.1042 30.0312 83.2188 30.8438L81.2344 29.7656C81.5156 29.2448 81.7812 28.6615 82.0312 28.0156C82.2812 27.3698 82.5052 26.6875 82.7031 25.9688C82.9115 25.2396 83.0938 24.4896 83.25 23.7188C83.4167 22.9479 83.5521 22.1875 83.6562 21.4375C83.7708 20.6771 83.8542 19.9427 83.9062 19.2344C83.9688 18.5156 84 17.849 84 17.2344C84 16.8281 83.9844 16.3958 83.9531 15.9375C83.9219 15.4688 83.8542 15.0052 83.75 14.5469C83.6562 14.0781 83.526 13.6302 83.3594 13.2031C83.1927 12.776 82.9688 12.401 82.6875 12.0781C82.4167 11.7552 82.0833 11.4948 81.6875 11.2969C81.3021 11.099 80.8438 11 80.3125 11C79.7917 11 79.3281 11.1198 78.9219 11.3594C78.5156 11.5885 78.1562 11.8958 77.8438 12.2812C77.5312 12.6562 77.2604 13.0885 77.0312 13.5781C76.8125 14.0677 76.6302 14.5729 76.4844 15.0938C76.349 15.6042 76.25 16.1094 76.1875 16.6094C76.125 17.1094 76.0938 17.5573 76.0938 17.9531V27H70.7969V2.3125H76.0781V11.6094C76.7552 10.6198 77.5833 9.85938 78.5625 9.32812C79.5521 8.78646 80.6458 8.51562 81.8438 8.51562C83.0938 8.51562 84.1823 8.71875 85.1094 9.125C86.0365 9.53125 86.8073 10.099 87.4219 10.8281C88.0365 11.5469 88.4948 12.4062 88.7969 13.4062C89.099 14.3958 89.25 15.4792 89.25 16.6562Z" fill="white"/>
<defs>
<linearGradient id="paint0_linear_320_405" x1="241.462" y1="25.9905" x2="215.632" y2="98.3442" gradientUnits="userSpaceOnUse">
<stop stop-color="#DF8908"/>
<stop offset="1" stop-color="#B415FF"/>
</linearGradient>
</defs>
</svg>
